<svg width="24" height="25" viewBox="0 0 24 25" fill="none" xmlns="http://www.w3.org/2000/svg">
<path d="M12 16.25C9.93 16.25 8.25 14.57 8.25 12.5C8.25 10.43 9.93 8.75 12 8.75C14.07 8.75 15.75 10.43 15.75 12.5C15.75 14.57 14.07 16.25 12 16.25ZM12 10.25C10.76 10.25 9.75 11.26 9.75 12.5C9.75 13.74 10.76 14.75 12 14.75C13.24 14.75 14.25 13.74 14.25 12.5C14.25 11.26 13.24 10.25 12 10.25Z" fill="#222526"/>
<path d="M15.21 22.6898C15 22.6898 14.79 22.6598 14.58 22.6098C13.96 22.4398 13.44 22.0498 13.11 21.4998L12.99 21.2998C12.4 20.2798 11.59 20.2798 11 21.2998L10.89 21.4898C10.56 22.0498 10.04 22.4498 9.42 22.6098C8.79 22.7798 8.14 22.6898 7.59 22.3598L5.87 21.3698C5.26 21.0198 4.82 20.4498 4.63 19.7598C4.45 19.0698 4.54 18.3598 4.89 17.7498C5.18 17.2398 5.26 16.7798 5.09 16.4898C4.92 16.1998 4.49 16.0298 3.9 16.0298C2.44 16.0298 1.25 14.8398 1.25 13.3798V11.6198C1.25 10.1598 2.44 8.9698 3.9 8.9698C4.49 8.9698 4.92 8.7998 5.09 8.5098C5.26 8.2198 5.19 7.7598 4.89 7.2498C4.54 6.6398 4.45 5.9198 4.63 5.2398C4.81 4.5498 5.25 3.9798 5.87 3.6298L7.6 2.6398C8.73 1.9698 10.22 2.3598 10.9 3.5098L11.02 3.7098C11.61 4.7298 12.42 4.7298 13.01 3.7098L13.12 3.5198C13.8 2.3598 15.29 1.9698 16.43 2.6498L18.15 3.6398C18.76 3.9898 19.2 4.5598 19.39 5.2498C19.57 5.9398 19.48 6.6498 19.13 7.2598C18.84 7.7698 18.76 8.2298 18.93 8.5198C19.1 8.8098 19.53 8.9798 20.12 8.9798C21.58 8.9798 22.77 10.1698 22.77 11.6298V13.3898C22.77 14.8498 21.58 16.0398 20.12 16.0398C19.53 16.0398 19.1 16.2098 18.93 16.4998C18.76 16.7898 18.83 17.2498 19.13 17.7598C19.48 18.3698 19.58 19.0898 19.39 19.7698C19.21 20.4598 18.77 21.0298 18.15 21.3798L16.42 22.3698C16.04 22.5798 15.63 22.6898 15.21 22.6898ZM12 18.9898C12.89 18.9898 13.72 19.5498 14.29 20.5398L14.4 20.7298C14.52 20.9398 14.72 21.0898 14.96 21.1498C15.2 21.2098 15.44 21.1798 15.64 21.0598L17.37 20.0598C17.63 19.9098 17.83 19.6598 17.91 19.3598C17.99 19.0598 17.95 18.7498 17.8 18.4898C17.23 17.5098 17.16 16.4998 17.6 15.7298C18.04 14.9598 18.95 14.5198 20.09 14.5198C20.73 14.5198 21.24 14.0098 21.24 13.3698V11.6098C21.24 10.9798 20.73 10.4598 20.09 10.4598C18.95 10.4598 18.04 10.0198 17.6 9.2498C17.16 8.4798 17.23 7.4698 17.8 6.4898C17.95 6.2298 17.99 5.9198 17.91 5.6198C17.83 5.3198 17.64 5.0798 17.38 4.9198L15.65 3.9298C15.22 3.6698 14.65 3.8198 14.39 4.2598L14.28 4.4498C13.71 5.4398 12.88 5.9998 11.99 5.9998C11.1 5.9998 10.27 5.4398 9.7 4.4498L9.59 4.2498C9.34 3.8298 8.78 3.6798 8.35 3.9298L6.62 4.9298C6.36 5.0798 6.16 5.3298 6.08 5.6298C6 5.9298 6.04 6.2398 6.19 6.4998C6.76 7.4798 6.83 8.4898 6.39 9.2598C5.95 10.0298 5.04 10.4698 3.9 10.4698C3.26 10.4698 2.75 10.9798 2.75 11.6198V13.3798C2.75 14.0098 3.26 14.5298 3.9 14.5298C5.04 14.5298 5.95 14.9698 6.39 15.7398C6.83 16.5098 6.76 17.5198 6.19 18.4998C6.04 18.7598 6 19.0698 6.08 19.3698C6.16 19.6698 6.35 19.9098 6.61 20.0698L8.34 21.0598C8.55 21.1898 8.8 21.2198 9.03 21.1598C9.27 21.0998 9.47 20.9398 9.6 20.7298L9.71 20.5398C10.28 19.5598 11.11 18.9898 12 18.9898Z" fill="#222526"/>
</svg>
