<svg width="32" height="32" viewBox="0 0 32 32" fill="none" xmlns="http://www.w3.org/2000/svg">
<path d="M23.4933 12.8267H16.4933C15.9466 12.8267 15.4933 12.3733 15.4933 11.8267C15.4933 11.28 15.9466 10.8267 16.4933 10.8267H23.4933C24.04 10.8267 24.4933 11.28 24.4933 11.8267C24.4933 12.3733 24.0533 12.8267 23.4933 12.8267Z" fill="#222526"/>
<path d="M9.49337 13.84C9.24004 13.84 8.9867 13.7467 8.7867 13.5467L7.7867 12.5467C7.40004 12.16 7.40004 11.52 7.7867 11.1333C8.17337 10.7467 8.81337 10.7467 9.20004 11.1333L9.49337 11.4267L11.7867 9.13334C12.1734 8.74667 12.8134 8.74667 13.2 9.13334C13.5867 9.52 13.5867 10.16 13.2 10.5467L10.2 13.5467C10.0134 13.7333 9.76004 13.84 9.49337 13.84Z" fill="#222526"/>
<path d="M23.4933 22.16H16.4933C15.9466 22.16 15.4933 21.7067 15.4933 21.16C15.4933 20.6133 15.9466 20.16 16.4933 20.16H23.4933C24.04 20.16 24.4933 20.6133 24.4933 21.16C24.4933 21.7067 24.0533 22.16 23.4933 22.16Z" fill="#222526"/>
<path d="M9.49337 23.1733C9.24004 23.1733 8.9867 23.08 8.7867 22.88L7.7867 21.88C7.40004 21.4933 7.40004 20.8533 7.7867 20.4667C8.17337 20.08 8.81337 20.08 9.20004 20.4667L9.49337 20.76L11.7867 18.4667C12.1734 18.08 12.8134 18.08 13.2 18.4667C13.5867 18.8533 13.5867 19.4933 13.2 19.88L10.2 22.88C10.0134 23.0667 9.76004 23.1733 9.49337 23.1733Z" fill="#222526"/>
<path d="M20 30.3333H12C4.75996 30.3333 1.66663 27.24 1.66663 20V12C1.66663 4.76001 4.75996 1.66667 12 1.66667H20C27.24 1.66667 30.3333 4.76001 30.3333 12V20C30.3333 27.24 27.24 30.3333 20 30.3333ZM12 3.66667C5.85329 3.66667 3.66663 5.85334 3.66663 12V20C3.66663 26.1467 5.85329 28.3333 12 28.3333H20C26.1466 28.3333 28.3333 26.1467 28.3333 20V12C28.3333 5.85334 26.1466 3.66667 20 3.66667H12Z" fill="#222526"/>
</svg>
