<svg width="24" height="25" viewBox="0 0 24 25" fill="none" xmlns="http://www.w3.org/2000/svg">
<path d="M15.0001 23.2498H9.00014C7.68014 23.2498 6.58015 23.1198 5.65015 22.8398C5.31015 22.7398 5.09015 22.4098 5.11015 22.0598C5.36015 19.0698 8.39015 16.7197 12.0001 16.7197C15.6101 16.7197 18.6301 19.0598 18.8901 22.0598C18.9201 22.4198 18.7001 22.7398 18.3501 22.8398C17.4201 23.1198 16.3201 23.2498 15.0001 23.2498ZM6.72015 21.5598C7.38015 21.6898 8.13015 21.7498 9.00014 21.7498H15.0001C15.8701 21.7498 16.6201 21.6898 17.2801 21.5598C16.7501 19.6398 14.5601 18.2197 12.0001 18.2197C9.44015 18.2197 7.25015 19.6398 6.72015 21.5598Z" fill="#222526"/>
<path d="M15 2.5H9C4 2.5 2 4.5 2 9.5V15.5C2 19.28 3.14 21.35 5.86 22.12C6.08 19.52 8.75 17.47 12 17.47C15.25 17.47 17.92 19.52 18.14 22.12C20.86 21.35 22 19.28 22 15.5V9.5C22 4.5 20 2.5 15 2.5ZM12 14.67C10.02 14.67 8.42 13.06 8.42 11.08C8.42 9.10002 10.02 7.5 12 7.5C13.98 7.5 15.58 9.10002 15.58 11.08C15.58 13.06 13.98 14.67 12 14.67Z" stroke="#222526" stroke-width="1.5" stroke-linecap="round" stroke-linejoin="round"/>
<path d="M11.9999 15.42C9.60992 15.42 7.66992 13.47 7.66992 11.08C7.66992 8.69002 9.60992 6.75 11.9999 6.75C14.3899 6.75 16.3299 8.69002 16.3299 11.08C16.3299 13.47 14.3899 15.42 11.9999 15.42ZM11.9999 8.25C10.4399 8.25 9.16992 9.52002 9.16992 11.08C9.16992 12.65 10.4399 13.92 11.9999 13.92C13.5599 13.92 14.8299 12.65 14.8299 11.08C14.8299 9.52002 13.5599 8.25 11.9999 8.25Z" fill="#222526"/>
</svg>
