<svg width="970" height="23" viewBox="0 0 970 23" fill="none" xmlns="http://www.w3.org/2000/svg">
<path opacity="0.5" d="M-5 20L111.073 3.80934C114.922 3.27237 118.828 3.27237 122.677 3.80934L232.948 19.1907C236.797 19.7276 240.703 19.7276 244.552 19.1907L354.823 3.80932C358.672 3.27235 362.578 3.27235 366.427 3.80931L476.698 19.1906C480.547 19.7276 484.453 19.7276 488.302 19.1906L598.573 3.8093C602.422 3.27233 606.328 3.27233 610.177 3.80929L720.448 19.1906C724.297 19.7276 728.203 19.7276 732.052 19.1906L842.323 3.80927C846.172 3.27231 850.078 3.27231 853.927 3.80927L970 19.9999" stroke="white" stroke-width="6"/>
</svg>
